# xmcd
#
# Track frame offsets: 
#        150
#        16757
#        35247
#        52615
#        64807
#        78205
#        94390
#        107210
#        122767
#        140300
#        155690
#        169212
#        183602
#        198260
#        209765
#        219527
#        229785
#        238370
#        255532
#        276407
#
# Disc length: 3881 seconds
#
# Revision: 3
# Processed by: cddbd v1.5.1PL0 Copyright (c) Steve Scherf et al.
# Submitted via: ExactAudioCopy v0.95a5
#
DISCID=2b0f2714
DTITLE=С - С20
DYEAR=2001
DGENRE=Pop
TTITLE0=
TTITLE1=ļ
TTITLE2=ǰ·
TTITLE3=ңķ
TTITLE4=ͬ·
TTITLE5=ҹ
TTITLE6=ÿջ
TTITLE7=ɳĹ£
TTITLE8=ϲ
TTITLE9=ѩд
TTITLE10=ϣ
TTITLE11=ȥ
TTITLE12=ݲ˵Ĺ
TTITLE13=С
TTITLE14='ƶ
TTITLE15='
TTITLE16=
TTITLE17=ٲҪ
TTITLE18=ů
TTITLE19=ɫڸ
EXTD=19785111213141617\n19793691520\n1980
EXTD=781018\n198112419
EXTT0=
EXTT1=
EXTT2=
EXTT3=
EXTT4=
EXTT5=
EXTT6=
EXTT7=
EXTT8=
EXTT9=
EXTT10=
EXTT11=
EXTT12=
EXTT13=
EXTT14=
EXTT15=
EXTT16=
EXTT17=
EXTT18=
EXTT19=
PLAYORDER=
